<?xml version="1.0" standalone="no"?>
<!DOCTYPE svg PUBLIC "-//W3C//DTD SVG 20010904//EN"
 "http://www.w3.org/TR/2001/REC-SVG-20010904/DTD/svg10.dtd">
<svg version="1.0" xmlns="http://www.w3.org/2000/svg"
 width="1168.000000pt" height="1168.000000pt" viewBox="0 0 1168.000000 1168.000000"
 preserveAspectRatio="xMidYMid meet">
<metadata>
Created by potrace 1.14, written by Peter Selinger 2001-2017
</metadata>
<g transform="translate(0.000000,1168.000000) scale(0.100000,-0.100000)"
fill="#000000" stroke="none">
<path d="M3385 11671 c-22 -3 -58 -6 -80 -6 -22 0 -42 -3 -45 -6 -3 -4 -32
-10 -65 -13 -33 -4 -80 -12 -105 -17 -25 -6 -52 -12 -60 -14 -57 -12 -212 -55
-227 -63 -10 -6 -20 -10 -23 -10 -34 -3 -355 -142 -370 -161 -3 -3 -18 -13
-35 -21 -33 -16 -223 -138 -241 -155 -7 -5 -31 -26 -55 -45 -121 -97 -219
-195 -311 -310 -33 -41 -66 -83 -74 -93 -8 -9 -14 -20 -14 -23 0 -3 -11 -20
-24 -37 -13 -18 -34 -50 -47 -72 -34 -60 -111 -209 -111 -215 0 -7 -17 -51
-28 -75 -17 -36 -56 -167 -66 -220 -2 -11 -6 -31 -9 -45 -13 -59 -16 -78 -22
-130 -9 -74 -9 -319 0 -401 6 -57 15 -110 31 -184 16 -78 56 -205 83 -264 8
-18 16 -39 17 -45 1 -6 4 -15 8 -21 3 -5 27 -50 52 -98 48 -93 143 -240 157
-245 5 -2 9 -8 9 -14 0 -25 194 -231 310 -328 36 -30 67 -58 68 -63 2 -4 8 -5
13 -1 5 3 9 1 9 -4 0 -6 26 -27 58 -48 31 -21 59 -41 60 -46 2 -4 8 -8 13 -8
5 0 28 -12 52 -27 65 -42 276 -153 291 -153 3 0 25 -9 49 -20 50 -23 276 -97
316 -103 15 -3 37 -10 48 -16 11 -5 23 -8 26 -5 3 3 21 1 39 -5 18 -6 49 -13
68 -15 19 -3 51 -7 70 -10 163 -26 220 -27 1440 -29 l1175 -1 2 110 c1 60 3
120 3 134 2 34 1 311 -1 380 -1 30 -1 64 -1 75 0 11 0 74 0 140 0 66 1 126 1
133 3 38 3 233 0 387 -1 44 -1 86 0 93 2 22 3 56 2 177 0 66 0 127 0 135 0 8
0 51 0 95 0 44 0 87 1 95 0 8 0 58 -1 110 0 52 0 102 0 110 1 26 0 313 -1 369
-1 30 -3 58 -6 63 -3 4 0 8 6 8 6 0 9 4 5 9 -4 8 -6 161 -3 261 0 8 0 51 -1
95 0 44 0 94 1 110 0 17 0 57 -1 90 0 33 -1 67 0 75 1 24 0 258 -2 345 -1 44
-1 85 0 90 0 6 1 19 2 30 1 11 1 55 0 98 l-1 77 -1207 -1 c-665 -1 -1226 -5
-1248 -8z"/>
<path d="M8138 7845 c-2 -3 -72 -7 -154 -10 -82 -2 -160 -7 -174 -9 -14 -3
-50 -7 -80 -10 -30 -4 -66 -9 -80 -12 -14 -3 -38 -7 -55 -10 -60 -10 -280 -67
-290 -75 -5 -5 -15 -9 -23 -9 -7 0 -44 -12 -80 -26 -37 -14 -80 -31 -97 -37
-131 -51 -420 -221 -534 -314 -108 -88 -262 -241 -331 -329 -31 -40 -96 -130
-113 -156 -60 -95 -137 -244 -130 -252 3 -3 2 -6 -3 -6 -6 0 -16 -17 -23 -37
-8 -21 -18 -49 -24 -63 -6 -14 -11 -31 -13 -37 -1 -7 -11 -41 -22 -75 -21 -67
-33 -113 -37 -138 -1 -8 -5 -28 -9 -45 -25 -118 -27 -520 -2 -585 3 -8 8 -33
10 -55 6 -44 60 -232 81 -280 14 -33 28 -67 29 -75 1 -3 4 -9 8 -15 3 -5 32
-59 63 -120 31 -60 60 -112 63 -115 4 -3 23 -29 42 -57 19 -29 38 -53 43 -53
4 0 7 -5 7 -11 0 -27 193 -232 310 -330 36 -30 67 -57 68 -61 2 -5 10 -8 17
-8 7 0 15 -4 17 -9 2 -5 39 -33 84 -62 107 -71 112 -75 164 -102 25 -13 62
-34 84 -46 72 -41 330 -144 395 -157 14 -3 28 -7 33 -10 4 -3 16 -7 26 -9 9
-1 35 -8 57 -14 22 -5 56 -13 75 -16 19 -3 42 -8 50 -10 45 -13 192 -33 300
-41 77 -5 2399 -11 2417 -6 9 3 12 442 12 1948 l0 1943 -87 1 c-124 1 -185 0
-193 -6 -4 -2 -10 0 -13 4 -3 5 -25 6 -49 2 -24 -3 -52 -3 -63 0 -10 4 -32 4
-49 0 -16 -3 -44 -3 -62 0 -17 4 -36 4 -42 1 -6 -4 -32 -4 -58 -1 -27 3 -72 3
-101 -1 -29 -3 -55 -2 -57 1 -2 4 -24 4 -48 0 -24 -3 -52 -3 -63 0 -10 4 -32
4 -49 0 -16 -3 -44 -3 -62 0 -17 4 -36 4 -42 1 -6 -4 -32 -4 -58 -1 -27 3 -72
3 -101 -1 -29 -3 -55 -3 -57 0 -2 3 -44 4 -95 1 -51 -3 -94 -2 -96 1 -2 4 -18
3 -36 0 -18 -4 -50 -4 -70 0 -21 3 -38 4 -38 0 0 -3 -38 -6 -85 -6 -47 0 -85
3 -85 6 0 4 -17 3 -37 0 -21 -4 -52 -4 -70 0 -18 3 -35 4 -38 1 -4 -5 -117 -6
-141 -1 -5 1 -12 1 -16 -1 -19 -4 -96 -2 -105 3 -6 4 -12 4 -15 2z"/>
<path d="M3557 3894 c-1 -1 -51 -5 -112 -8 -116 -7 -139 -9 -220 -21 -27 -4
-60 -9 -72 -10 -11 -2 -29 -6 -40 -9 -10 -3 -33 -8 -52 -11 -52 -9 -222 -55
-258 -70 -18 -8 -33 -11 -33 -8 0 3 -6 1 -12 -4 -7 -6 -31 -16 -53 -23 -83
-27 -346 -155 -380 -185 -6 -5 -28 -19 -48 -30 -20 -11 -37 -23 -37 -27 0 -5
-5 -8 -12 -8 -9 0 -98 -62 -134 -95 -37 -33 -64 -54 -64 -50 0 7 -223 -219
-247 -251 -74 -96 -144 -194 -164 -229 -42 -73 -89 -160 -99 -185 -6 -14 -14
-34 -19 -45 -43 -102 -56 -140 -81 -235 -45 -174 -54 -251 -54 -440 -1 -136 5
-225 20 -295 3 -16 7 -39 10 -50 51 -278 217 -607 423 -837 52 -58 171 -178
176 -178 2 0 15 -10 28 -23 37 -35 106 -89 161 -126 28 -19 53 -38 54 -43 2
-4 7 -8 11 -8 4 0 46 -23 92 -51 75 -45 278 -148 304 -154 6 -1 24 -7 40 -14
17 -6 50 -19 75 -27 25 -9 58 -23 74 -31 18 -10 26 -11 21 -4 -5 9 -2 10 11 3
40 -21 230 -66 329 -78 22 -3 46 -7 54 -10 78 -26 526 -25 706 1 17 3 48 7 70
10 81 10 251 53 370 93 44 14 82 27 85 27 3 1 16 6 30 12 14 6 54 23 90 38
126 53 389 202 398 226 2 5 8 9 14 9 18 0 189 143 276 230 45 45 110 117 143
159 33 42 71 90 85 106 13 17 24 36 24 43 0 6 4 12 9 12 5 0 13 10 17 22 4 13
9 25 13 28 15 12 96 170 136 265 24 58 70 201 79 245 3 14 7 35 10 46 2 12 7
39 10 60 3 22 8 50 11 64 8 36 16 185 14 260 0 36 -1 71 0 78 1 6 1 18 2 25 1
19 0 253 -2 342 -1 44 -1 86 0 93 3 27 3 64 3 222 -1 91 -1 172 -1 180 1 50
-1 324 -2 370 -1 30 -1 64 -1 75 0 11 0 74 0 140 0 127 1 129 3 160 1 11 1 67
0 125 l-1 105 -1141 0 c-627 0 -1141 -1 -1142 -1z"/>
</g>
</svg>
