<?xml version="1.0" standalone="no"?>
<!DOCTYPE svg PUBLIC "-//W3C//DTD SVG 20010904//EN"
 "http://www.w3.org/TR/2001/REC-SVG-20010904/DTD/svg10.dtd">
<svg version="1.0" xmlns="http://www.w3.org/2000/svg"
 width="640.000000pt" height="640.000000pt" viewBox="0 0 640.000000 640.000000"
 preserveAspectRatio="xMidYMid meet">
<metadata>
Created by potrace 1.14, written by Peter Selinger 2001-2017
</metadata>
<g transform="translate(0.000000,640.000000) scale(0.100000,-0.100000)"
fill="#000000" stroke="none">
<path d="M3104 4532 c-23 -25 -24 -26 -37 -8 -11 15 -22 18 -53 13 -140 -24
-207 -49 -271 -104 -43 -37 -63 -47 -94 -49 -44 -2 -188 -71 -229 -110 -14
-13 -40 -35 -57 -49 -25 -20 -32 -32 -27 -49 4 -19 -6 -29 -71 -70 -55 -35
-81 -59 -96 -87 -11 -22 -26 -42 -34 -46 -8 -3 -15 -9 -15 -14 0 -6 -20 -44
-44 -85 -44 -75 -48 -97 -19 -119 17 -13 8 -41 -15 -49 -61 -21 -106 -76 -119
-145 -2 -14 -13 -51 -24 -83 -27 -80 -35 -220 -14 -238 21 -17 19 -36 -7 -71
-20 -26 -23 -42 -21 -104 1 -40 7 -93 13 -117 7 -23 14 -59 16 -78 7 -54 24
-92 62 -132 19 -20 31 -41 27 -47 -16 -26 -14 -65 5 -108 11 -25 20 -50 20
-55 0 -17 73 -131 113 -178 75 -87 142 -151 165 -156 12 -4 22 -10 22 -14 0
-4 14 -13 30 -20 25 -10 30 -18 28 -44 -1 -17 -6 -38 -12 -46 -6 -8 -6 -12 -2
-8 11 10 38 -11 30 -23 -3 -5 0 -8 8 -7 8 2 12 -4 10 -14 -2 -10 2 -18 8 -18
6 0 8 5 5 10 -3 6 -2 10 4 10 5 0 15 -8 20 -17 6 -10 11 -14 11 -10 0 9 83
-52 88 -65 2 -5 8 -6 13 -2 5 3 9 0 9 -6 0 -6 4 -9 8 -6 5 3 25 -4 45 -14 21
-11 39 -20 42 -20 3 0 10 0 15 0 6 0 10 -4 10 -10 0 -5 -8 -7 -17 -3 -15 5
-16 3 -6 -7 10 -11 15 -11 28 0 8 7 15 8 15 3 0 -5 10 -10 22 -10 13 -1 24 -7
26 -13 3 -8 8 -8 17 0 9 8 15 8 20 0 3 -5 4 -11 1 -11 -22 -5 -33 -4 -43 4 -7
5 -13 6 -13 1 0 -5 -5 -2 -10 6 -9 13 -10 13 -10 0 0 -13 -1 -13 -10 0 -7 11
-10 11 -10 2 0 -10 -5 -10 -22 -1 -13 7 -26 17 -30 23 -4 6 -6 -3 -4 -20 2
-17 0 -37 -5 -45 -7 -11 -9 -11 -9 3 0 12 -7 17 -21 15 -12 -1 -24 4 -26 11
-3 8 2 10 14 6 15 -5 15 -4 3 5 -21 14 -37 -4 -20 -24 10 -12 10 -18 -1 -31
-12 -14 -9 -20 16 -40 17 -14 37 -30 45 -37 8 -6 18 -11 22 -9 7 2 10 -6 7
-24 -2 -13 26 -23 46 -17 17 5 18 4 6 -11 -8 -9 -9 -16 -3 -16 6 0 12 6 15 13
2 6 8 9 13 4 4 -4 0 -15 -10 -25 -16 -16 -18 -16 -32 2 -8 11 -14 15 -14 10 0
-6 5 -15 12 -22 10 -10 7 -18 -14 -36 -19 -18 -28 -22 -37 -13 -8 8 -11 8 -11
-1 0 -7 5 -12 11 -12 8 0 9 -4 0 -13 -6 -8 -8 -17 -4 -20 3 -4 1 -7 -5 -7 -7
0 -12 -5 -12 -10 0 -6 8 -5 20 2 11 7 16 14 10 16 -5 2 6 20 24 40 34 35 34
35 61 18 31 -20 27 -33 -5 -16 -12 6 -24 9 -27 6 -8 -8 47 -27 58 -20 5 3 7
10 4 15 -4 5 -1 9 4 9 15 0 14 -27 -1 -37 -7 -4 -20 -8 -28 -8 -8 0 -15 -10
-16 -22 -1 -12 3 -20 8 -17 5 3 14 1 21 -4 7 -6 32 -9 57 -8 25 1 53 -2 64 -7
13 -6 16 -6 12 2 -6 10 6 15 27 12 4 0 7 4 7 10 0 5 4 8 9 4 5 -3 12 -1 16 5
3 5 11 10 17 10 7 0 7 -4 0 -13 -8 -9 -8 -17 0 -27 8 -12 9 -12 4 3 -6 19 9
24 18 5 3 -7 3 -3 0 9 -3 16 -1 21 11 19 9 -1 20 -7 23 -12 9 -12 42 -17 42
-6 0 5 7 9 15 9 8 0 15 -5 15 -10 0 -6 3 -7 6 -4 4 4 1 13 -6 22 -7 8 -8 15
-2 15 15 0 33 -26 24 -35 -4 -5 -1 -5 6 -1 7 4 10 12 7 17 -4 5 -2 9 4 9 5 0
12 -6 14 -12 4 -10 6 -10 6 0 1 7 5 11 9 8 4 -2 14 -1 22 4 10 6 6 17 -18 48
-38 47 -41 60 -9 29 13 -12 22 -25 20 -28 -1 -4 5 -13 15 -20 16 -13 16 -13 2
5 -15 19 -14 19 13 2 30 -20 35 -29 12 -20 -8 4 -15 1 -15 -4 0 -16 18 -24 25
-12 4 6 10 8 15 5 5 -3 12 0 16 6 4 7 9 8 13 1 4 -6 11 -4 19 4 8 9 9 14 2 14
-6 0 -8 5 -5 10 4 6 11 7 17 4 6 -4 14 0 19 7 12 20 11 26 -6 26 -10 0 -14 -6
-10 -15 4 -12 3 -12 -9 -3 -9 8 -16 8 -20 2 -4 -6 -13 -8 -21 -4 -16 6 -20 -7
-7 -23 4 -5 -4 2 -18 16 -14 14 -22 27 -17 28 4 2 7 9 7 14 0 6 -3 8 -7 5 -8
-9 -44 23 -38 33 3 4 -2 11 -11 14 -9 4 -13 2 -8 -5 3 -6 -6 -3 -22 7 -21 14
-26 15 -19 4 7 -12 6 -13 -6 -4 -8 6 -22 10 -32 9 -11 -2 -15 1 -10 8 3 7 -3
4 -14 -6 -13 -11 -23 -14 -27 -8 -4 5 3 12 14 16 11 4 18 11 14 16 -4 6 -13 4
-25 -7 -10 -9 -16 -21 -13 -25 3 -5 0 -9 -6 -9 -6 0 -9 -3 -6 -8 2 -4 -2 -18
-10 -32 l-14 -25 4 25 c2 14 7 32 11 41 3 10 2 20 -4 24 -6 3 -11 1 -11 -6 0
-7 -3 -9 -7 -6 -3 4 -13 1 -21 -6 -13 -10 -15 -9 -9 5 3 10 2 20 -4 23 -5 4
-8 3 -7 -2 2 -4 -1 -8 -7 -8 -5 0 -9 3 -8 7 2 4 -6 5 -17 3 -13 -2 -18 0 -14
7 4 6 -1 6 -14 -1 -15 -8 -23 -8 -27 0 -4 6 -14 8 -22 5 -23 -9 -36 4 -17 18
16 12 16 13 0 19 -12 5 -15 3 -11 -6 4 -6 0 -4 -8 5 -8 10 -16 15 -19 13 -3
-3 -11 2 -19 12 -12 14 -12 16 0 8 10 -6 12 -4 6 5 -6 9 -4 11 5 5 9 -6 11 -4
5 5 -6 9 -4 11 5 5 9 -5 11 -4 6 4 -4 6 -11 9 -15 7 -4 -3 -12 4 -19 15 -12
18 -11 19 10 7 27 -15 38 -29 33 -39 -3 -3 7 -7 21 -7 l25 0 -21 20 c-21 19
-19 38 3 38 9 0 8 -3 -1 -8 -17 -11 16 -41 40 -37 16 3 16 1 1 -21 -9 -14 -11
-24 -5 -24 6 0 16 9 22 21 9 15 15 18 24 10 7 -6 16 -8 19 -4 4 3 7 2 7 -4 0
-13 -28 -25 -40 -18 -5 3 -8 -4 -7 -15 1 -23 8 -25 25 -8 9 9 12 9 12 0 0 -7
-5 -12 -11 -12 -5 0 -7 -5 -4 -10 5 -8 12 -7 23 2 12 10 16 10 19 1 5 -15 33
-18 33 -4 0 5 -7 12 -16 15 -8 3 -12 10 -9 16 3 5 2 10 -4 10 -5 0 -12 -5 -14
-10 -3 -6 -4 -5 -3 2 3 14 26 18 26 6 0 -11 43 -53 55 -53 6 0 16 5 24 13 8 8
17 9 25 4 6 -5 30 -8 54 -7 24 1 45 -2 48 -6 2 -5 11 -6 19 -3 8 4 12 11 8 18
-4 7 -1 7 9 -1 8 -7 18 -10 21 -6 4 3 9 -2 13 -11 3 -9 10 -13 15 -10 5 3 7 9
5 13 -3 4 18 7 45 7 34 0 49 -4 49 -14 0 -7 4 -11 10 -7 5 3 8 11 6 18 -1 7
-1 9 1 5 9 -16 25 -7 18 9 -5 14 -3 15 6 6 6 -6 18 -9 25 -6 8 3 14 0 14 -7 0
-6 5 -8 10 -5 6 4 7 12 4 18 -4 7 -4 9 1 5 4 -4 14 -3 22 3 25 22 13 -2 -14
-26 -16 -13 -23 -25 -17 -25 6 0 17 7 24 15 7 9 20 13 28 10 10 -4 12 0 8 10
-3 9 -2 14 3 10 5 -3 11 1 14 7 2 7 3 -9 2 -35 -1 -26 2 -50 7 -53 4 -3 8 0 8
5 0 6 7 11 15 11 8 0 15 -5 15 -11 0 -6 6 -9 13 -6 6 2 20 0 29 -4 17 -9 17
-7 6 41 -1 8 -12 23 -22 32 -10 10 -15 18 -11 18 5 0 17 -7 27 -16 14 -14 20
-14 33 -4 8 7 15 8 15 3 0 -6 -10 -15 -22 -21 -13 -6 -17 -11 -10 -11 7 -1 10
-5 7 -11 -3 -5 -1 -10 5 -10 6 0 8 -5 4 -12 -5 -7 -3 -8 5 -3 7 4 10 17 7 29
-5 21 -5 21 10 1 16 -20 16 -20 12 1 -2 11 4 29 12 39 14 17 13 18 -2 12 -10
-3 -20 -2 -24 4 -4 6 -11 6 -20 -2 -10 -8 -17 -7 -28 4 -14 13 -14 16 0 21 8
3 12 2 9 -3 -3 -5 -1 -12 5 -16 9 -5 14 6 12 26 -1 3 5 6 13 6 8 0 11 -7 7
-16 -5 -14 -3 -14 11 -2 9 7 15 17 12 21 -8 13 21 6 39 -9 13 -11 17 -9 26 14
15 39 12 43 -10 15 -11 -14 -19 -20 -19 -15 0 20 65 85 89 90 35 7 130 46 130
54 0 3 9 17 19 31 16 21 21 22 35 11 14 -12 25 -8 79 29 85 59 98 72 93 87 -3
7 0 13 6 13 14 0 191 174 223 219 22 32 23 41 15 71 -10 32 -8 37 17 58 118
100 148 149 166 267 8 52 19 88 44 148 37 91 32 199 -10 211 -15 4 -18 8 -10
14 29 18 56 115 55 197 0 71 -18 165 -31 165 -3 0 -14 7 -24 14 -15 12 -16 18
-6 40 23 49 -30 212 -72 223 -20 6 -25 18 -10 27 21 13 -2 66 -74 176 -71 108
-117 160 -143 160 -22 0 -92 70 -92 92 0 27 -62 84 -132 122 -37 19 -85 46
-105 59 -21 12 -57 31 -80 41 -23 10 -43 26 -46 36 -5 19 -147 78 -211 88 -33
4 -38 3 -33 -11 3 -9 2 -19 -3 -22 -9 -6 -25 13 -25 30 0 30 -94 45 -298 50
-127 3 -129 2 -153 -23z m-411 -2707 c23 4 50 -34 36 -51 -7 -9 -2 -18 20 -35
22 -16 28 -26 22 -38 -5 -9 -6 -22 -4 -28 3 -7 0 -13 -6 -13 -6 0 -11 4 -11 9
0 5 -3 17 -7 27 -4 11 -3 15 5 10 6 -3 14 -1 18 5 4 8 3 9 -4 5 -7 -4 -12 -1
-12 6 0 9 -3 9 -10 -2 -7 -11 -10 -11 -10 -2 0 7 -5 10 -12 6 -6 -4 -8 -3 -5
3 3 5 0 10 -8 10 -9 0 -11 -4 -6 -11 9 -11 11 -17 11 -37 0 -6 7 -8 16 -5 11
4 15 2 11 -8 -7 -17 16 -28 38 -20 11 5 13 2 9 -10 -3 -9 -10 -13 -15 -10 -5
3 -6 -3 -2 -13 6 -16 5 -16 -10 -4 -17 13 -23 6 -18 -21 0 -5 -6 -8 -14 -8
-19 0 -19 9 1 31 16 17 15 20 -15 48 -25 24 -31 26 -26 10 4 -11 2 -19 -4 -19
-10 0 -15 14 -12 33 0 4 -3 7 -9 7 -5 0 -12 0 -15 0 -3 0 -13 8 -23 18 -9 9
-29 24 -42 33 -25 16 -25 17 -6 38 17 19 20 19 31 4 11 -15 13 -15 24 5 6 12
9 22 6 22 -4 0 -3 5 0 10 4 6 13 7 23 1 9 -4 25 -7 35 -6z m308 -96 c6 -13 7
-19 1 -15 -6 3 -12 1 -14 -6 -3 -7 -7 -5 -11 6 -5 11 -3 15 5 10 8 -5 9 -2 5
9 -9 24 0 21 14 -4z m23 5 c3 -8 2 -12 -4 -9 -6 3 -10 10 -10 16 0 14 7 11 14
-7z m64 -19 c-3 -3 -9 2 -12 12 -6 14 -5 15 5 6 7 -7 10 -15 7 -18z m52 9 c0
-8 -19 -13 -24 -6 -3 5 1 9 9 9 8 0 15 -2 15 -3z m400 -16 c18 -22 17 -48 -2
-48 -6 0 -5 6 2 15 8 10 9 15 2 15 -6 0 -15 -8 -20 -17 -7 -12 -9 -7 -9 20 1
20 3 37 5 37 2 0 12 -10 22 -22z m-810 -8 c0 -5 -2 -10 -4 -10 -3 0 -8 5 -11
10 -3 6 -1 10 4 10 6 0 11 -4 11 -10z m60 -21 c0 -8 5 -8 15 1 10 8 19 9 28 3
6 -6 23 -9 35 -8 13 1 26 -4 29 -12 3 -7 11 -13 19 -13 8 0 14 -5 14 -10 0
-14 -23 -8 -36 10 -10 12 -15 12 -27 1 -13 -10 -18 -9 -29 8 -9 15 -15 17 -26
9 -10 -9 -17 -7 -30 5 -10 11 -12 17 -4 17 7 0 12 -5 12 -11z m783 -22 c3 -8
-1 -14 -8 -14 -7 0 -11 6 -8 14 3 7 6 13 8 13 2 0 5 -6 8 -13z m-733 -12 c9
-10 9 -15 1 -15 -6 0 -11 6 -12 13 0 9 -2 9 -6 -1 -2 -6 -9 -10 -13 -7 -5 3
-12 0 -16 -6 -4 -8 -3 -9 4 -5 7 4 12 2 12 -3 0 -6 -6 -11 -12 -11 -9 0 -8 -4
2 -10 13 -8 13 -10 -1 -10 -24 0 -29 10 -17 34 19 37 39 44 58 21z m134 3
c-11 -17 -13 -52 -4 -63 6 -7 3 -11 -10 -11 -10 0 -16 4 -13 9 2 4 0 14 -7 22
-14 17 2 52 24 52 8 0 13 -4 10 -9z m126 2 c3 -1 9 -2 14 -1 14 3 77 -50 71
-59 -3 -5 0 -12 7 -17 7 -4 22 -19 33 -33 l20 -25 -25 20 c-14 11 -32 28 -42
38 -9 10 -20 18 -25 19 -4 0 -7 4 -6 8 1 4 -4 11 -12 14 -28 10 -26 -15 5 -54
17 -22 28 -41 23 -41 -31 -5 -60 -3 -70 4 -16 11 -35 -1 -27 -16 4 -7 4 -9 -1
-5 -4 4 -14 3 -22 -3 -10 -9 -13 -8 -13 0 0 7 -5 9 -10 6 -6 -3 -13 1 -16 10
-5 11 -9 13 -14 5 -4 -6 -6 7 -6 30 0 22 4 40 9 40 4 0 5 5 2 10 -3 6 -1 10 5
10 6 0 9 4 6 8 -2 4 -1 14 5 22 7 13 9 13 9 0 1 -13 2 -13 10 1 8 13 48 18 70
9z m-206 -16 c8 -20 -2 -36 -16 -28 -7 4 -6 9 2 14 9 5 9 9 1 14 -6 4 -12 2
-12 -3 -3 -26 -4 -30 -11 -37 -5 -4 -8 -2 -8 5 0 8 -7 10 -20 6 -15 -5 -18 -3
-14 9 3 8 11 13 18 10 7 -3 19 2 26 11 16 19 26 19 34 -1z m41 -82 c0 -26 -2
-45 -5 -43 -3 2 -16 -2 -30 -9 -29 -16 -83 -24 -76 -11 8 12 -20 22 -41 14
-17 -6 -17 -5 -1 12 16 17 19 17 35 3 32 -27 43 -31 36 -11 -3 10 -10 23 -15
29 -5 7 2 11 22 12 17 0 30 -4 30 -9 0 -5 -6 -8 -12 -6 -7 1 -13 -4 -13 -12 0
-8 6 -15 13 -17 7 -1 8 0 2 3 -5 2 -10 9 -10 14 0 11 22 7 33 -6 5 -5 5 1 2
14 -5 16 -4 21 4 17 7 -5 8 -1 4 10 -5 13 -3 15 7 9 9 -5 11 -4 6 4 -4 6 -12
9 -17 6 -5 -4 -9 -1 -9 6 0 7 -6 5 -13 -6 -10 -12 -16 -14 -21 -7 -9 15 2 34
14 27 5 -3 15 3 22 14 10 17 13 17 23 5 6 -8 10 -36 10 -62z m-163 39 c11 -18
14 -18 40 -5 25 13 28 13 38 -7 7 -11 9 -23 6 -27 -3 -3 -6 0 -6 8 0 9 -3 10
-14 1 -7 -6 -22 -9 -32 -6 -11 4 -7 -1 9 -10 15 -8 27 -21 27 -27 0 -6 -9 -3
-20 7 -18 16 -20 16 -44 -2 -22 -17 -22 -20 -8 -31 16 -10 16 -11 -1 -11 -10
-1 -20 6 -23 14 -4 8 -10 12 -15 9 -5 -3 -9 0 -9 6 0 6 6 10 13 8 6 -1 22 4
34 12 17 11 20 18 12 33 -6 10 -17 16 -24 13 -9 -3 -13 2 -12 15 2 24 13 24
29 0z m201 -33 c2 -7 1 -22 -3 -33 -7 -19 -7 -19 -17 0 -11 21 -7 45 7 45 4 0
10 -6 13 -12z m298 -1 c-6 -8 -7 -18 -3 -23 4 -4 -1 -2 -10 5 -19 14 -25 26
-9 16 5 -3 12 -1 16 5 3 5 9 10 12 10 3 0 0 -6 -6 -13z m-461 -67 c0 -5 -4
-10 -10 -10 -5 0 -10 5 -10 10 0 6 5 10 10 10 6 0 10 -4 10 -10z"/>
<path d="M2639 1792 c-10 -14 -16 -28 -13 -33 8 -14 -6 -11 -21 5 -8 7 -11 17
-7 20 3 4 -1 4 -11 0 -15 -5 -13 -10 15 -30 36 -27 40 -28 55 -13 7 7 12 6 17
-6 3 -9 2 -13 -4 -10 -6 3 -10 1 -10 -4 0 -6 7 -11 15 -11 10 0 15 7 13 17 -3
20 19 25 42 9 9 -7 8 -2 -3 11 -12 14 -15 23 -8 28 19 11 -5 38 -34 40 -17 0
-33 -8 -46 -23z m49 1 c6 -2 12 3 12 10 0 8 3 7 10 -3 5 -9 5 -19 0 -26 -6 -6
-8 -13 -5 -15 2 -3 -5 -5 -15 -6 -11 -1 -20 3 -20 8 0 6 4 8 9 4 5 -3 13 0 17
6 5 8 3 9 -6 4 -9 -6 -11 -4 -5 4 5 10 2 9 -13 0 -12 -7 -20 -17 -19 -22 1 -5
-5 -12 -13 -14 -13 -4 -13 -3 0 6 13 10 13 11 0 11 -13 0 -13 1 0 10 8 5 11
10 6 10 -5 0 -3 7 4 15 7 9 16 12 19 8 3 -4 12 -9 19 -10z"/>
<path d="M2947 1635 c-4 -8 -3 -16 1 -19 4 -3 9 4 9 15 2 23 -3 25 -10 4z"/>
<path d="M3046 1638 c4 -7 -8 -12 -27 -10 -3 1 -6 -4 -7 -11 -2 -22 -7 -42
-15 -54 -5 -8 -4 -13 2 -13 6 0 10 -3 10 -7 -5 -33 24 -41 53 -16 10 9 22 12
30 7 7 -4 25 -8 40 -9 l27 -1 -30 37 c-29 37 -31 76 -2 65 8 -4 11 -1 8 5 -4
6 -13 8 -20 5 -7 -2 -16 -2 -20 2 -9 10 -55 10 -49 0z m49 -25 c0 -11 6 -27
14 -36 7 -10 10 -17 5 -17 -4 0 0 -6 11 -13 17 -13 17 -14 -1 -12 -26 1 -46
14 -39 26 4 5 0 9 -7 9 -10 0 -10 2 -1 8 9 6 7 11 -7 20 -16 10 -20 10 -18 0
2 -7 -4 -12 -13 -12 -22 2 -18 -25 6 -38 12 -7 16 -7 11 0 -3 6 -2 13 4 17 15
9 12 -21 -4 -34 -23 -19 -44 -3 -41 33 2 37 13 59 25 51 4 -3 10 1 13 9 8 21
42 12 42 -11z m-35 -38 c-7 -8 -17 -15 -23 -15 -6 0 -2 7 9 15 25 19 30 19 14
0z"/>
<path d="M3066 1618 c3 -4 9 -8 15 -8 5 0 9 4 9 8 0 5 -7 9 -15 9 -8 0 -12 -4
-9 -9z"/>
<path d="M3094 1566 c1 -8 5 -18 8 -22 4 -3 5 1 4 10 -1 8 -5 18 -8 22 -4 3
-5 -1 -4 -10z"/>
<path d="M3153 1607 c0 -8 6 -14 14 -14 9 0 10 4 2 14 -6 7 -12 13 -14 13 -1
0 -2 -6 -2 -13z"/>
<path d="M2906 1602 c-3 -5 1 -9 9 -9 8 0 12 4 9 9 -3 4 -7 8 -9 8 -2 0 -6 -4
-9 -8z"/>
<path d="M2301 2050 c7 -14 12 -28 11 -32 -1 -5 3 -8 8 -8 15 0 12 12 -11 40
l-20 25 12 -25z"/>
<path d="M2074 2040 c0 -13 4 -16 10 -10 7 7 7 13 0 20 -6 6 -10 3 -10 -10z"/>
<path d="M2235 2050 c-4 -6 -11 -8 -16 -5 -5 4 -9 2 -9 -4 0 -5 8 -9 18 -8 10
0 19 7 19 14 0 16 -4 16 -12 3z"/>
<path d="M2260 2056 c0 -2 7 -7 16 -10 8 -3 12 -2 9 4 -6 10 -25 14 -25 6z"/>
<path d="M2104 2038 c-4 -7 -2 -8 5 -4 6 4 18 3 25 -3 9 -8 13 -7 13 2 0 16
-34 20 -43 5z"/>
<path d="M2177 2036 c-4 -10 -1 -13 8 -9 8 3 12 9 9 14 -7 12 -11 11 -17 -5z"/>
<path d="M2340 2040 c0 -5 5 -10 11 -10 5 0 7 5 4 10 -3 6 -8 10 -11 10 -2 0
-4 -4 -4 -10z"/>
<path d="M1911 2007 c-8 -10 -7 -14 2 -14 8 0 14 6 14 14 0 7 -1 13 -2 13 -2
0 -8 -6 -14 -13z"/>
<path d="M2277 2005 c3 -8 9 -12 14 -9 12 7 11 11 -5 17 -10 4 -13 1 -9 -8z"/>
<path d="M2361 2004 c0 -11 3 -14 6 -6 3 7 2 16 -1 19 -3 4 -6 -2 -5 -13z"/>
<path d="M1865 2000 c-3 -6 1 -7 9 -4 18 7 21 14 7 14 -6 0 -13 -4 -16 -10z"/>
<path d="M2059 1993 c-13 -16 -12 -17 4 -4 9 7 17 15 17 17 0 8 -8 3 -21 -13z"/>
<path d="M1693 1985 c0 -8 4 -12 9 -9 5 3 6 10 3 15 -9 13 -12 11 -12 -6z"/>
<path d="M2234 1980 c0 -13 4 -16 10 -10 7 7 7 13 0 20 -6 6 -10 3 -10 -10z"/>
<path d="M2079 1973 c-13 -16 -12 -17 4 -4 9 7 17 15 17 17 0 8 -8 3 -21 -13z"/>
<path d="M2313 1975 c0 -8 4 -12 9 -9 4 3 8 9 8 15 0 5 -4 9 -8 9 -5 0 -9 -7
-9 -15z"/>
<path d="M2375 1982 c-9 -9 -5 -32 5 -32 5 0 7 7 4 15 -5 11 -2 13 10 9 9 -3
16 -2 16 3 0 10 -26 13 -35 5z"/>
<path d="M2170 1965 c-10 -13 -11 -18 -1 -28 10 -9 11 -8 5 7 -5 12 -4 17 3
13 5 -3 10 0 10 8 0 19 -2 19 -17 0z"/>
<path d="M2282 1960 c-7 -11 -8 -20 -3 -20 9 0 24 30 18 36 -1 2 -8 -6 -15
-16z"/>
<path d="M2420 1970 c0 -5 0 -13 1 -17 0 -5 -10 -11 -23 -15 l-23 -7 24 2 c17
1 25 9 27 25 2 12 2 22 -1 22 -3 0 -5 -4 -5 -10z"/>
<path d="M1635 1960 c-3 -5 -1 -10 4 -10 6 0 11 5 11 10 0 6 -2 10 -4 10 -3 0
-8 -4 -11 -10z"/>
<path d="M1976 1962 c-3 -5 1 -9 9 -9 8 0 12 4 9 9 -3 4 -7 8 -9 8 -2 0 -6 -4
-9 -8z"/>
<path d="M2099 1953 c-13 -17 -13 -17 6 -3 11 8 22 16 24 17 2 2 0 3 -6 3 -6
0 -17 -8 -24 -17z"/>
<path d="M2335 1960 c-3 -5 -1 -10 4 -10 6 0 11 5 11 10 0 6 -2 10 -4 10 -3 0
-8 -4 -11 -10z"/>
<path d="M2467 1954 c6 -15 23 -19 23 -5 0 5 -7 11 -14 14 -10 4 -13 1 -9 -9z"/>
<path d="M2033 1947 c0 -8 6 -14 14 -14 9 0 10 4 2 14 -6 7 -12 13 -14 13 -1
0 -2 -6 -2 -13z"/>
<path d="M1695 1941 c-3 -5 -2 -12 3 -15 5 -3 9 1 9 9 0 17 -3 19 -12 6z"/>
<path d="M2317 1933 c-10 -9 -9 -23 1 -23 5 0 9 7 9 15 0 17 -1 18 -10 8z"/>
<path d="M2348 1933 c7 -3 16 -2 19 1 4 3 -2 6 -13 5 -11 0 -14 -3 -6 -6z"/>
<path d="M1976 1918 c3 -5 10 -6 15 -3 13 9 11 12 -6 12 -8 0 -12 -4 -9 -9z"/>
<path d="M2150 1921 c0 -6 4 -13 10 -16 6 -3 7 1 4 9 -7 18 -14 21 -14 7z"/>
<path d="M2236 1913 c-6 -14 -5 -15 5 -6 7 7 10 15 7 18 -3 3 -9 -2 -12 -12z"/>
<path d="M2450 1926 c0 -2 7 -7 16 -10 8 -3 12 -2 9 4 -6 10 -25 14 -25 6z"/>
<path d="M2490 1921 c0 -12 39 -25 47 -17 4 3 -1 6 -10 6 -9 0 -17 5 -17 10 0
6 -4 10 -10 10 -5 0 -10 -4 -10 -9z"/>
<path d="M2344 1904 c-18 -14 -18 -15 4 -4 12 6 22 13 22 15 0 8 -5 6 -26 -11z"/>
<path d="M2385 1907 c-15 -12 -16 -15 -4 -22 8 -5 11 -5 7 0 -4 4 0 14 10 21
23 18 11 18 -13 1z"/>
<path d="M2191 1894 c5 -6 7 -19 3 -28 -4 -10 -1 -16 7 -16 7 0 10 3 6 6 -3 3
-2 16 3 28 6 17 4 22 -11 22 -12 0 -15 -4 -8 -12z"/>
<path d="M2267 1889 c6 -23 9 -24 16 -5 3 8 0 17 -7 19 -10 4 -12 -1 -9 -14z"/>
<path d="M2415 1901 c-3 -6 -3 -11 2 -11 4 0 0 -5 -9 -11 -10 -5 -18 -14 -18
-19 0 -6 9 -2 19 7 11 9 18 20 15 25 -3 4 4 8 15 8 12 0 20 -6 19 -12 -2 -7 3
-13 11 -13 8 0 15 6 17 13 1 7 0 8 -3 2 -7 -14 -24 -13 -20 2 3 16 -39 23 -48
9z"/>
<path d="M2554 1898 c-4 -6 7 -23 23 -38 l30 -28 1 28 c0 20 -6 30 -23 38 -18
8 -26 8 -31 0z m46 -29 c0 -6 -7 -6 -20 1 -11 6 -20 15 -20 21 0 6 7 6 20 -1
11 -6 20 -15 20 -21z"/>
<path d="M1754 1886 c1 -8 5 -18 8 -22 4 -3 5 1 4 10 -1 8 -5 18 -8 22 -4 3
-5 -1 -4 -10z"/>
<path d="M2103 1884 c9 -11 14 -23 11 -26 -3 -3 -1 -8 4 -12 18 -11 8 25 -12
41 -21 18 -21 18 -3 -3z"/>
<path d="M1930 1881 c0 -6 4 -13 10 -16 6 -3 7 1 4 9 -7 18 -14 21 -14 7z"/>
<path d="M2345 1879 c-4 -6 -4 -13 -1 -16 3 -4 6 -1 6 6 0 7 5 9 12 5 7 -4 8
-3 4 4 -9 15 -13 15 -21 1z"/>
<path d="M2510 1876 c7 -7 13 -7 20 0 6 6 3 10 -10 10 -13 0 -16 -4 -10 -10z"/>
<path d="M2313 1865 c0 -8 4 -15 9 -15 4 0 8 4 8 9 0 6 -4 12 -8 15 -5 3 -9
-1 -9 -9z"/>
<path d="M2434 1843 c1 -17 6 -27 14 -25 6 1 12 -7 12 -18 0 -11 -5 -19 -11
-17 -6 1 -14 -5 -16 -13 -4 -12 -3 -12 5 -2 5 8 13 13 18 13 5 -1 9 9 9 22 0
13 -5 21 -14 19 -10 -2 -12 4 -7 23 4 14 2 25 -2 25 -5 0 -9 -12 -8 -27z"/>
<path d="M2490 1863 c0 -5 12 -15 26 -21 14 -7 23 -8 19 -2 -3 5 -1 10 4 10 6
0 11 5 11 11 0 8 -5 8 -15 -1 -12 -10 -18 -10 -30 0 -8 7 -15 8 -15 3z"/>
<path d="M1830 1856 c0 -2 8 -10 18 -17 15 -13 16 -12 3 4 -13 16 -21 21 -21
13z"/>
<path d="M1870 1856 c0 -2 8 -10 18 -17 15 -13 16 -12 3 4 -13 16 -21 21 -21
13z"/>
<path d="M2050 1856 c0 -2 8 -10 18 -17 15 -13 16 -12 3 4 -13 16 -21 21 -21
13z"/>
<path d="M2251 1851 c-8 -5 -16 -17 -17 -26 -1 -9 1 -14 4 -10 4 4 6 9 4 12
-2 3 5 11 15 19 20 15 16 19 -6 5z"/>
<path d="M2370 1845 c0 -8 4 -15 10 -15 5 0 7 7 4 15 -4 8 -8 15 -10 15 -2 0
-4 -7 -4 -15z"/>
<path d="M1965 1839 c-3 -4 2 -6 10 -5 21 3 28 13 10 13 -9 0 -18 -4 -20 -8z"/>
<path d="M2465 1840 c3 -5 8 -10 11 -10 2 0 4 5 4 10 0 6 -5 10 -11 10 -5 0
-7 -4 -4 -10z"/>
<path d="M2154 1805 c0 -19 3 -35 7 -35 8 0 6 56 -2 64 -3 3 -5 -10 -5 -29z"/>
<path d="M1715 1819 c-3 -4 2 -6 10 -5 21 3 28 13 10 13 -9 0 -18 -4 -20 -8z"/>
<path d="M1815 1820 c3 -5 8 -10 11 -10 2 0 4 5 4 10 0 6 -5 10 -11 10 -5 0
-7 -4 -4 -10z"/>
<path d="M1995 1821 c-3 -5 -2 -12 3 -15 5 -3 9 1 9 9 0 17 -3 19 -12 6z"/>
<path d="M2276 1813 c-6 -14 -5 -15 5 -6 7 7 10 15 7 18 -3 3 -9 -2 -12 -12z"/>
<path d="M2353 1815 c0 -7 6 -11 14 -8 7 3 13 6 13 8 0 2 -6 5 -13 8 -8 3 -14
-1 -14 -8z"/>
<path d="M2514 1822 c3 -6 0 -13 -6 -16 -7 -3 -3 -3 10 0 12 3 22 1 22 -5 0
-6 -4 -12 -10 -12 -5 -1 -15 -2 -22 -3 -20 -2 -19 -20 5 -46 12 -14 19 -21 15
-16 -14 18 -8 29 7 16 10 -9 15 -9 15 -1 0 6 -5 11 -11 11 -5 0 -7 6 -3 13 6
9 5 9 -8 0 -15 -13 -28 -8 -28 10 0 6 3 7 6 4 8 -8 44 11 44 23 0 5 -10 14
-21 21 -13 6 -19 7 -15 1z"/>
<path d="M2079 1807 c8 -9 16 -15 19 -12 3 3 15 -3 26 -12 21 -18 21 -18 2 5
-11 12 -21 20 -24 17 -3 -3 -12 1 -21 8 -14 11 -14 10 -2 -6z"/>
<path d="M2198 1813 c7 -3 16 -2 19 1 4 3 -2 6 -13 5 -11 0 -14 -3 -6 -6z"/>
<path d="M2303 1810 c2 -8 10 -15 17 -15 7 0 15 7 17 15 4 13 3 13 -6 0 -10
-13 -12 -13 -22 0 -9 13 -10 13 -6 0z"/>
<path d="M1635 1799 c-3 -4 2 -6 10 -5 21 3 28 13 10 13 -9 0 -18 -4 -20 -8z"/>
<path d="M1920 1800 c-9 -6 -10 -10 -3 -10 6 0 15 5 18 10 8 12 4 12 -15 0z"/>
<path d="M2018 1792 c-11 -15 -11 -15 2 -6 8 6 23 10 33 8 11 -1 16 0 13 4
-13 12 -36 10 -48 -6z"/>
<path d="M2380 1800 c-9 -6 -10 -10 -3 -10 6 0 15 5 18 10 8 12 4 12 -15 0z"/>
<path d="M2410 1800 c0 -5 5 -10 10 -10 6 0 10 5 10 10 0 6 -4 10 -10 10 -5 0
-10 -4 -10 -10z"/>
<path d="M2267 1778 c7 -8 10 -18 6 -21 -3 -4 -1 -7 5 -7 21 0 21 16 -1 30
-19 12 -21 11 -10 -2z"/>
<path d="M1756 1767 c3 -10 9 -15 12 -12 3 3 0 11 -7 18 -10 9 -11 8 -5 -6z"/>
<path d="M1876 1767 c3 -10 9 -15 12 -12 3 3 0 11 -7 18 -10 9 -11 8 -5 -6z"/>
<path d="M2055 1771 c-3 -5 -2 -12 3 -15 5 -3 9 1 9 9 0 17 -3 19 -12 6z"/>
<path d="M2093 1765 c0 -8 3 -13 5 -10 3 3 15 -3 26 -12 15 -13 14 -10 -3 10
-29 32 -28 31 -28 12z"/>
<path d="M2386 1763 c-6 -14 -5 -15 5 -6 7 7 10 15 7 18 -3 3 -9 -2 -12 -12z"/>
<path d="M2825 1769 c-4 -6 -5 -12 -2 -15 2 -3 7 2 10 11 7 17 1 20 -8 4z"/>
<path d="M2213 1755 c0 -7 7 -11 15 -7 11 4 13 1 7 -8 -5 -9 -4 -11 3 -6 16
10 15 14 -6 25 -14 7 -19 6 -19 -4z"/>
<path d="M2335 1760 c-3 -5 -2 -10 4 -10 5 0 13 5 16 10 3 6 2 10 -4 10 -5 0
-13 -4 -16 -10z"/>
<path d="M2460 1755 c-10 -12 -8 -17 14 -26 14 -7 23 -16 20 -21 -3 -4 3 -11
13 -14 37 -12 62 -27 57 -35 -3 -5 -13 -3 -23 3 -22 13 -55 3 -45 -14 5 -8 2
-9 -9 -5 -10 3 -17 2 -17 -4 0 -6 8 -9 18 -7 9 2 16 10 15 16 -2 7 7 12 19 12
20 0 20 -1 5 -18 -10 -10 -17 -23 -17 -28 0 -4 7 2 16 14 15 21 34 22 34 1 0
-6 -4 -8 -10 -4 -5 3 -16 -7 -24 -22 -8 -15 -18 -27 -23 -25 -4 1 -8 -7 -8
-18 0 -11 4 -20 10 -19 5 0 13 -8 17 -18 7 -16 8 -16 5 2 -2 11 -9 19 -15 18
-7 -2 -12 6 -12 18 0 11 5 17 10 14 6 -3 13 1 16 9 3 9 10 13 15 10 5 -3 6 2
3 11 -4 10 -2 15 7 13 8 -2 14 5 14 14 0 9 4 20 8 24 4 4 7 0 7 -9 0 -9 10
-23 23 -32 12 -8 20 -19 18 -23 -7 -11 23 -13 39 -2 13 9 13 12 -2 24 -19 14
-25 32 -8 21 6 -3 10 -2 10 3 0 20 -26 20 -27 0 -1 -10 5 -22 13 -25 17 -6 9
-23 -12 -23 -8 0 -13 4 -9 9 3 6 -4 15 -15 21 -11 6 -20 17 -20 25 0 17 -52
55 -75 55 -9 0 -13 5 -10 10 3 6 -1 13 -9 16 -9 3 -13 10 -10 15 3 5 -3 6 -13
2 -16 -6 -16 -5 -4 10 7 9 11 17 8 17 -2 0 -10 -7 -17 -15z"/>
<path d="M2753 1756 c-3 -6 -3 -8 2 -4 4 4 21 0 37 -8 21 -11 27 -19 20 -27
-8 -9 -3 -13 17 -14 18 -1 28 3 28 13 0 7 -6 14 -13 14 -7 0 -20 8 -30 17 -19
20 -52 24 -61 9z"/>
<path d="M2870 1760 c0 -5 5 -10 11 -10 5 0 7 5 4 10 -3 6 -8 10 -11 10 -2 0
-4 -4 -4 -10z"/>
<path d="M2411 1753 c-1 -17 16 -25 25 -12 4 7 3 9 -4 5 -5 -3 -13 0 -15 6 -4
9 -6 10 -6 1z"/>
<path d="M3667 1753 c-11 -11 -8 -21 9 -27 13 -5 14 -4 6 7 -7 8 -9 17 -5 20
3 4 4 7 1 7 -2 0 -8 -3 -11 -7z"/>
<path d="M2355 1740 c-3 -5 -1 -10 4 -10 6 0 11 5 11 10 0 6 -2 10 -4 10 -3 0
-8 -4 -11 -10z"/>
<path d="M2102 1724 c10 -10 20 -16 22 -13 3 3 -5 11 -17 18 -21 13 -21 12 -5
-5z"/>
<path d="M2381 1735 c0 -5 6 -18 14 -29 13 -18 14 -18 12 2 0 11 -4 19 -8 16
-4 -2 -10 2 -12 8 -3 7 -6 9 -6 3z"/>
<path d="M1630 1720 c0 -5 5 -10 11 -10 5 0 7 5 4 10 -3 6 -8 10 -11 10 -2 0
-4 -4 -4 -10z"/>
<path d="M2176 1713 c-6 -14 -5 -15 5 -6 7 7 10 15 7 18 -3 3 -9 -2 -12 -12z"/>
<path d="M2244 1719 c-3 -6 -1 -16 5 -22 9 -9 10 -7 5 7 -6 15 -4 17 6 11 9
-5 11 -4 6 3 -9 15 -13 15 -22 1z"/>
<path d="M2312 1706 c7 -15 14 -23 16 -17 2 6 9 8 14 5 7 -5 8 -2 4 5 -5 7
-10 10 -14 7 -3 -3 -11 2 -19 12 -11 15 -12 13 -1 -12z"/>
<path d="M2431 1720 c-9 -5 -4 -7 13 -7 29 0 32 2 13 10 -8 3 -20 2 -26 -3z"/>
<path d="M2557 1723 c-4 -3 -7 -11 -7 -17 0 -6 5 -5 12 2 6 6 9 14 7 17 -3 3
-9 2 -12 -2z"/>
<path d="M1993 1705 c0 -8 4 -12 9 -9 5 3 6 10 3 15 -9 13 -12 11 -12 -6z"/>
<path d="M2356 1707 c3 -10 9 -15 12 -12 3 3 0 11 -7 18 -10 9 -11 8 -5 -6z"/>
<path d="M1794 1702 c4 -3 14 -7 22 -8 9 -1 13 0 10 4 -4 3 -14 7 -22 8 -9 1
-13 0 -10 -4z"/>
<path d="M2575 1700 c-8 -13 5 -13 25 0 13 8 13 10 -2 10 -9 0 -20 -4 -23 -10z"/>
<path d="M3666 1695 c-11 -8 -18 -15 -15 -16 2 0 11 -2 19 -4 10 -1 16 5 16
16 0 11 0 19 -1 19 0 0 -9 -7 -19 -15z"/>
<path d="M2139 1698 c-5 -18 -6 -38 -1 -34 7 8 12 36 6 36 -2 0 -4 -1 -5 -2z"/>
<path d="M2273 1685 c0 -8 4 -15 9 -15 4 0 8 4 8 9 0 6 -4 12 -8 15 -5 3 -9
-1 -9 -9z"/>
<path d="M2372 1684 c-7 -8 -8 -14 -3 -14 10 0 25 19 20 25 -2 1 -10 -3 -17
-11z"/>
<path d="M2440 1694 c0 -6 6 -16 13 -23 10 -11 9 -13 -5 -8 -10 4 -18 2 -18
-3 0 -12 27 -13 34 -2 2 4 -2 16 -10 27 -8 10 -14 14 -14 9z"/>
<path d="M2470 1691 c0 -5 5 -13 10 -16 6 -3 10 -2 10 4 0 5 -4 13 -10 16 -5
3 -10 2 -10 -4z"/>
<path d="M3390 1690 c0 -6 -4 -9 -9 -6 -4 3 -17 -1 -27 -9 -26 -19 -5 -43 23
-25 15 10 15 11 1 6 -10 -3 -20 -1 -23 4 -7 12 44 5 57 -8 8 -8 8 -15 -1 -26
-11 -13 -8 -14 16 -12 15 2 30 4 33 5 3 0 6 10 6 21 0 15 -5 19 -20 14 -16 -5
-17 -4 -5 9 15 16 44 3 33 -15 -3 -5 -1 -15 5 -22 8 -9 7 -18 -4 -32 -13 -16
-14 -16 -9 -1 3 9 1 17 -5 17 -6 0 -10 -5 -8 -11 1 -6 -5 -14 -13 -16 -12 -4
-12 -3 -1 5 10 7 6 10 -13 10 -15 0 -23 -5 -19 -11 3 -6 1 -7 -5 -3 -7 4 -12
3 -12 -2 0 -5 -7 -9 -15 -9 -8 0 -13 2 -10 5 7 7 -14 42 -26 42 -6 0 -6 -7 1
-19 16 -30 11 -39 -6 -11 -8 14 -13 17 -10 7 3 -9 1 -29 -4 -43 -7 -17 -7 -23
0 -19 6 3 10 13 10 21 0 8 5 12 10 9 6 -4 7 -12 3 -18 -5 -9 -3 -9 8 -1 8 6
22 10 32 9 9 -2 15 1 11 6 -3 5 -1 9 5 9 5 0 11 -3 14 -7 2 -5 2 -3 1 4 -2 7
7 10 24 9 34 -4 52 3 52 19 0 8 9 17 20 20 11 3 20 11 20 17 0 7 -5 7 -14 -1
-17 -14 -33 4 -31 35 2 25 -22 28 -47 7 -17 -15 -43 -9 -33 7 3 5 1 11 -5 15
-5 3 -10 1 -10 -5z"/>
<path d="M2210 1682 c0 -5 7 -9 15 -9 8 0 12 4 9 9 -3 4 -9 8 -15 8 -5 0 -9
-4 -9 -8z"/>
<path d="M2596 1681 c-3 -5 6 -8 20 -8 19 0 22 2 13 8 -18 11 -26 11 -33 0z"/>
<path d="M3070 1682 c0 -5 7 -9 15 -9 8 0 12 4 9 9 -3 4 -9 8 -15 8 -5 0 -9
-4 -9 -8z"/>
<path d="M3110 1679 c0 -9 10 -12 43 -12 9 0 18 -4 18 -8 1 -5 2 -13 3 -18 2
-13 16 -26 29 -26 7 0 12 -9 12 -19 0 -23 34 -29 60 -10 15 11 15 15 1 41 -8
15 -15 24 -16 20 0 -5 5 -18 11 -29 8 -15 8 -19 0 -13 -7 4 -20 1 -29 -7 -16
-12 -16 -11 -2 6 14 18 13 19 -2 13 -13 -4 -16 -1 -13 14 2 10 0 19 -6 19 -5
0 -8 3 -8 8 3 19 -2 29 -16 29 -8 0 -15 -4 -15 -8 0 -4 -8 -6 -17 -4 -10 2
-18 4 -18 5 0 1 -8 3 -17 5 -10 2 -18 -1 -18 -6z m90 -19 c-8 -5 -10 -10 -4
-10 7 0 14 -6 17 -14 4 -9 0 -13 -11 -12 -25 4 -24 46 1 46 7 0 6 -4 -3 -10z"/>
<path d="M3243 1678 c-14 -18 -12 -46 4 -52 10 -4 11 -1 4 12 -8 15 -5 18 15
18 13 0 23 -5 22 -10 -1 -6 2 -21 6 -34 l7 -22 20 22 19 23 20 -24 c16 -18 24
-21 32 -13 7 7 8 12 4 12 -5 0 -3 7 4 15 7 9 10 19 6 22 -4 4 -10 3 -14 -2
-14 -20 -41 -15 -60 13 -21 29 -68 43 -58 17 3 -9 0 -12 -9 -8 -8 3 -12 9 -9
14 8 14 -2 11 -13 -3z m67 -4 c0 -8 -19 -13 -24 -6 -3 5 1 9 9 9 8 0 15 -2 15
-3z m10 -44 c-20 -12 -33 -1 -19 16 9 11 15 12 23 4 8 -8 7 -13 -4 -20z m64
-16 c3 -8 2 -12 -4 -9 -6 3 -10 10 -10 16 0 14 7 11 14 -7z"/>
<path d="M2163 1658 c-11 -19 -13 -39 -1 -32 5 3 7 9 4 12 -3 3 -1 11 5 19 6
7 9 13 6 13 -3 0 -9 -6 -14 -12z"/>
<path d="M2308 1652 c4 -11 1 -13 -8 -7 -9 5 -11 4 -6 -3 10 -16 14 -15 25 6
7 14 6 19 -4 19 -7 0 -11 -7 -7 -15z"/>
<path d="M1954 1649 c-3 -6 -2 -15 3 -20 5 -5 9 -1 9 11 0 23 -2 24 -12 9z"/>
<path d="M2412 1640 c0 -14 2 -19 5 -12 2 6 2 18 0 25 -3 6 -5 1 -5 -13z"/>
<path d="M2611 1644 c0 -11 3 -14 6 -6 3 7 2 16 -1 19 -3 4 -6 -2 -5 -13z"/>
<path d="M1395 1640 c-3 -5 -1 -10 4 -10 6 0 11 5 11 10 0 6 -2 10 -4 10 -3 0
-8 -4 -11 -10z"/>
<path d="M1777 1635 c-4 -8 -3 -16 1 -19 4 -3 9 4 9 15 2 23 -3 25 -10 4z"/>
<path d="M2186 1642 c-3 -5 1 -9 9 -9 8 0 12 4 9 9 -3 4 -7 8 -9 8 -2 0 -6 -4
-9 -8z"/>
<path d="M2385 1639 c-4 -6 -5 -12 -2 -15 2 -3 7 2 10 11 7 17 1 20 -8 4z"/>
<path d="M2229 1623 c-13 -16 -12 -17 4 -4 16 13 21 21 13 21 -2 0 -10 -8 -17
-17z"/>
<path d="M2355 1631 c-3 -5 -2 -12 3 -15 5 -3 9 1 9 9 0 17 -3 19 -12 6z"/>
<path d="M2119 1613 c-13 -16 -12 -17 4 -4 16 13 21 21 13 21 -2 0 -10 -8 -17
-17z"/>
<path d="M2430 1620 c0 -5 7 -6 17 -3 12 5 14 3 8 -7 -5 -9 -4 -11 4 -6 6 4 9
12 6 17 -8 12 -35 12 -35 -1z"/>
<path d="M2175 1610 c-4 -6 -10 -8 -15 -5 -4 3 -14 -3 -21 -13 -12 -15 -12
-16 2 -5 9 7 18 11 21 8 3 -3 11 1 18 10 7 8 10 15 7 15 -3 0 -9 -5 -12 -10z"/>
<path d="M1880 1600 c-9 -6 -10 -10 -3 -10 6 0 15 5 18 10 8 12 4 12 -15 0z"/>
<path d="M2006 1598 c3 -5 10 -6 15 -3 13 9 11 12 -6 12 -8 0 -12 -4 -9 -9z"/>
<path d="M2330 1599 c0 -5 5 -7 10 -4 6 3 10 8 10 11 0 2 -4 4 -10 4 -5 0 -10
-5 -10 -11z"/>
<path d="M2385 1600 c-3 -5 -1 -10 4 -10 6 0 11 5 11 10 0 6 -2 10 -4 10 -3 0
-8 -4 -11 -10z"/>
<path d="M2475 1600 c-3 -5 -2 -10 4 -10 5 0 13 5 16 10 3 6 2 10 -4 10 -5 0
-13 -4 -16 -10z"/>
<path d="M2565 1600 c-4 -6 1 -7 12 -3 16 6 16 5 4 -10 -7 -9 -9 -17 -3 -17
12 0 23 26 15 34 -9 9 -21 7 -28 -4z"/>
<path d="M2189 1583 c-13 -16 -12 -17 4 -4 9 7 17 15 17 17 0 8 -8 3 -21 -13z"/>
<path d="M2306 1583 c-6 -14 -5 -15 5 -6 7 7 10 15 7 18 -3 3 -9 -2 -12 -12z"/>
<path d="M2460 1570 c6 -11 13 -20 16 -20 2 0 0 9 -6 20 -6 11 -13 20 -16 20
-2 0 0 -9 6 -20z"/>
<path d="M2159 1575 c-1 -3 -2 -8 -3 -12 -1 -5 -5 -15 -10 -23 -7 -12 -6 -13
4 -3 13 12 23 43 14 43 -2 0 -5 -2 -5 -5z"/>
<path d="M2220 1569 c0 -5 -4 -7 -10 -4 -14 9 -12 -1 3 -13 10 -8 13 -6 14 9
1 10 0 19 -3 19 -2 0 -4 -5 -4 -11z"/>
<path d="M2543 1573 c-15 -5 -17 -23 -4 -23 5 0 11 7 15 15 3 8 4 15 3 14 -1
0 -8 -3 -14 -6z"/>
<path d="M1876 1553 c-6 -14 -5 -15 5 -6 7 7 10 15 7 18 -3 3 -9 -2 -12 -12z"/>
<path d="M1940 1566 c0 -2 8 -10 18 -17 15 -13 16 -12 3 4 -13 16 -21 21 -21
13z"/>
<path d="M2116 1558 c3 -5 10 -6 15 -3 13 9 11 12 -6 12 -8 0 -12 -4 -9 -9z"/>
<path d="M2254 1558 c-3 -5 -3 -12 0 -15 3 -4 6 -1 6 5 0 6 10 9 21 7 12 -3
19 -1 15 2 -11 11 -35 12 -42 1z"/>
<path d="M2346 1562 c-2 -4 4 -8 14 -8 10 0 16 4 14 8 -3 4 -9 8 -14 8 -5 0
-11 -4 -14 -8z"/>
<path d="M2395 1550 c3 -6 1 -10 -6 -10 -7 0 -10 -3 -6 -6 3 -3 13 -2 22 4 16
8 16 9 1 15 -10 4 -15 3 -11 -3z"/>
<path d="M1766 1538 c3 -5 10 -6 15 -3 13 9 11 12 -6 12 -8 0 -12 -4 -9 -9z"/>
<path d="M1816 1542 c-3 -5 1 -9 9 -9 8 0 12 4 9 9 -3 4 -7 8 -9 8 -2 0 -6 -4
-9 -8z"/>
<path d="M2436 1539 c3 -5 10 -7 15 -4 5 4 8 -4 6 -16 -1 -18 3 -23 22 -23 14
0 26 6 29 14 2 9 0 11 -5 5 -15 -19 -42 -14 -40 7 1 13 -5 22 -16 23 -9 2 -15
-1 -11 -6z"/>
<path d="M2579 1529 c-6 -13 -7 -19 -1 -15 6 3 13 0 16 -6 3 -7 3 -2 0 11 -4
16 -3 21 5 17 6 -4 11 -2 11 3 0 19 -19 12 -31 -10z"/>
<path d="M2669 1540 c-1 -5 -2 -15 -3 -21 0 -6 -10 -17 -20 -25 -11 -7 -17
-17 -13 -20 9 -9 48 36 42 47 -3 4 -1 10 5 14 5 3 10 1 10 -5 0 -6 5 -8 11 -4
8 4 7 9 -2 15 -19 12 -29 11 -30 -1z"/>
<path d="M2179 1538 c-5 -19 -8 -50 -4 -46 7 7 15 48 9 48 -2 0 -4 -1 -5 -2z"/>
<path d="M2354 1520 c0 -13 4 -16 10 -10 7 7 7 13 0 20 -6 6 -10 3 -10 -10z"/>
<path d="M2550 1529 c0 -5 5 -7 10 -4 6 3 10 8 10 11 0 2 -4 4 -10 4 -5 0 -10
-5 -10 -11z"/>
<path d="M1866 1518 c3 -5 10 -6 15 -3 13 9 11 12 -6 12 -8 0 -12 -4 -9 -9z"/>
<path d="M2254 1522 c4 -3 14 -7 22 -8 9 -1 13 0 10 4 -4 3 -14 7 -22 8 -9 1
-13 0 -10 -4z"/>
<path d="M2410 1526 c0 -2 7 -7 16 -10 8 -3 12 -2 9 4 -6 10 -25 14 -25 6z"/>
<path d="M2110 1495 c5 -7 7 -15 3 -18 -3 -4 -1 -7 5 -7 6 0 10 8 9 18 0 10
-7 19 -14 19 -9 0 -10 -4 -3 -12z"/>
<path d="M2200 1500 c-9 -6 -10 -10 -3 -10 6 0 15 5 18 10 8 12 4 12 -15 0z"/>
<path d="M2315 1501 c-3 -5 0 -13 6 -17 7 -4 9 -3 5 4 -3 5 0 13 6 15 9 4 10
6 1 6 -6 1 -14 -3 -18 -8z"/>
<path d="M2373 1497 c-3 -6 -1 -7 5 -3 7 4 12 2 12 -4 0 -6 5 -8 10 -5 6 3 10
10 10 14 0 11 -30 9 -37 -2z"/>
<path d="M2533 1494 c-3 -8 -9 -11 -14 -8 -5 3 -6 -3 -2 -12 4 -11 8 -13 11
-6 2 7 8 10 13 7 5 -4 6 1 3 10 -5 13 -2 14 20 5 15 -5 25 -6 22 -1 -10 16
-47 20 -53 5z"/>
<path d="M2678 1488 c-14 -14 -15 -18 -4 -18 8 0 17 7 20 16 9 23 4 24 -16 2z"/>
<path d="M2075 1491 c-3 -5 -2 -12 3 -15 5 -3 9 1 9 9 0 17 -3 19 -12 6z"/>
<path d="M2278 1493 c7 -3 16 -2 19 1 4 3 -2 6 -13 5 -11 0 -14 -3 -6 -6z"/>
<path d="M2421 1493 c-1 -17 16 -25 25 -12 4 7 3 9 -4 5 -5 -3 -13 0 -15 6 -4
9 -6 10 -6 1z"/>
<path d="M2235 1473 c1 -10 -2 -25 -8 -33 -9 -12 -9 -13 3 -3 16 15 24 53 11
53 -5 0 -8 -8 -6 -17z"/>
<path d="M2991 1474 c0 -11 3 -14 6 -6 3 7 2 16 -1 19 -3 4 -6 -2 -5 -13z"/>
<path d="M2455 1471 c-7 -12 12 -24 25 -16 6 3 10 12 9 18 0 9 -2 9 -6 0 -2
-7 -9 -13 -14 -13 -6 0 -7 5 -4 10 3 6 4 10 1 10 -3 0 -7 -4 -11 -9z"/>
<path d="M2587 1468 c-13 -10 -14 -17 -6 -28 9 -12 10 -12 5 4 -5 14 -2 17 9
12 9 -3 14 -2 10 3 -3 5 1 12 7 14 7 3 8 6 2 6 -5 1 -18 -5 -27 -11z"/>
<path d="M1790 1465 c0 -7 30 -13 34 -7 3 4 -4 9 -15 9 -10 1 -19 0 -19 -2z"/>
<path d="M1890 1460 c0 -5 5 -10 11 -10 5 0 7 5 4 10 -3 6 -8 10 -11 10 -2 0
-4 -4 -4 -10z"/>
<path d="M2265 1460 c-3 -6 1 -7 9 -4 18 7 21 14 7 14 -6 0 -13 -4 -16 -10z"/>
<path d="M2350 1460 c0 -5 5 -10 10 -10 6 0 10 5 10 10 0 6 -4 10 -10 10 -5 0
-10 -4 -10 -10z"/>
<path d="M2410 1467 c0 -3 12 -12 26 -22 15 -9 23 -12 20 -6 -7 11 -46 35 -46
28z"/>
<path d="M2696 1461 c-3 -4 8 -8 23 -7 16 1 27 4 24 9 -6 10 -41 9 -47 -2z"/>
<path d="M2895 1460 c3 -5 8 -10 11 -10 2 0 4 5 4 10 0 6 -5 10 -11 10 -5 0
-7 -4 -4 -10z"/>
<path d="M1954 1449 c-3 -6 -2 -15 3 -20 5 -5 9 -1 9 11 0 23 -2 24 -12 9z"/>
<path d="M2170 1456 c0 -2 8 -10 18 -17 15 -13 16 -12 3 4 -13 16 -21 21 -21
13z"/>
<path d="M2540 1451 c-8 -6 -18 -7 -22 -5 -4 3 -8 1 -8 -5 0 -14 39 -9 44 6 6
15 5 16 -14 4z"/>
<path d="M2620 1451 c0 -6 4 -13 10 -16 6 -3 7 1 4 9 -7 18 -14 21 -14 7z"/>
<path d="M2650 1451 c0 -6 4 -13 10 -16 6 -3 7 1 4 9 -7 18 -14 21 -14 7z"/>
<path d="M1725 1440 c-3 -6 1 -7 9 -4 18 7 21 14 7 14 -6 0 -13 -4 -16 -10z"/>
<path d="M2313 1435 c0 -8 4 -12 9 -9 5 3 6 10 3 15 -9 13 -12 11 -12 -6z"/>
<path d="M2375 1439 c-3 -4 2 -6 10 -5 21 3 28 13 10 13 -9 0 -18 -4 -20 -8z"/>
<path d="M2416 1422 c-3 -5 1 -9 9 -9 8 0 12 4 9 9 -3 4 -7 8 -9 8 -2 0 -6 -4
-9 -8z"/>
</g>
</svg>
