<svg width="56" height="73" viewBox="0 0 56 73" fill="none" xmlns="http://www.w3.org/2000/svg">
<g clip-path="url(#clip0_8_121)">
<path d="M14.0028 73C21.7293 73 28 67.5494 28 60.8334V48.6667H14.0028C6.27636 48.6667 0.00561523 54.1174 0.00561523 60.8334C0.00561523 67.5494 6.27636 73 14.0028 73Z" fill="#0ACF83"/>
<path d="M28 36.1667C28 29.4507 34.2707 24 41.9972 24H55.9944V48.3333H41.9972C34.2707 48.3333 28 42.8827 28 36.1667Z" fill="#A259FF"/>
<path d="M0.00561523 12.1667C0.00561523 5.45067 6.27636 0 14.0028 0H28V24.3333H14.0028C6.27636 24.3333 0.00561523 18.8827 0.00561523 12.1667Z" fill="#F24E1E"/>
</g>
<defs>
<clipPath id="clip0_8_121">
<rect width="56" height="73" fill="white"/>
</clipPath>
</defs>
</svg>
